<svg width="24" height="24" viewBox="0 0 24 24" fill="none" xmlns="http://www.w3.org/2000/svg">
<path d="M18.75 4.06065V19.5C18.75 19.6989 18.671 19.8897 18.5303 20.0303C18.3897 20.171 18.1989 20.25 18 20.25H2.56067C2.41233 20.25 2.26733 20.206 2.14399 20.1236C2.02065 20.0412 1.92453 19.9241 1.86776 19.787C1.81099 19.65 1.79614 19.4992 1.82508 19.3537C1.85402 19.2082 1.92545 19.0746 2.03034 18.9697L17.4697 3.53032C17.5746 3.42543 17.7082 3.354 17.8537 3.32507C17.9992 3.29613 18.15 3.31098 18.287 3.36774C18.4241 3.42451 18.5412 3.52064 18.6236 3.64398C18.706 3.76731 18.75 3.91232 18.75 4.06065Z" stroke="#9C9C9C" stroke-width="1.225" stroke-linecap="round" stroke-linejoin="round"/>
<path d="M11.25 9.74998V20.25" stroke="#9C9C9C" stroke-width="1.225" stroke-linecap="round" stroke-linejoin="round"/>
</svg>
