<svg width="25" height="24" viewBox="0 0 25 24" fill="none" xmlns="http://www.w3.org/2000/svg">
<path d="M12.25 15C14.3211 15 16 13.3211 16 11.25C16 9.17893 14.3211 7.5 12.25 7.5C10.1789 7.5 8.5 9.17893 8.5 11.25C8.5 13.3211 10.1789 15 12.25 15Z" stroke="#595959" stroke-width="1.70588" stroke-linecap="round" stroke-linejoin="round"/>
<path d="M19.75 3.75H4.75C4.33579 3.75 4 4.08579 4 4.5V19.5C4 19.9142 4.33579 20.25 4.75 20.25H19.75C20.1642 20.25 20.5 19.9142 20.5 19.5V4.5C20.5 4.08579 20.1642 3.75 19.75 3.75Z" stroke="#595959" stroke-width="1.70588" stroke-linecap="round" stroke-linejoin="round"/>
<path d="M5.66724 20.25C6.0075 18.7586 6.8441 17.427 8.04002 16.4732C9.23594 15.5194 10.7203 15 12.25 15C13.7797 15 15.264 15.5194 16.4599 16.4732C17.6558 17.427 18.4924 18.7586 18.8327 20.25" stroke="#595959" stroke-width="1.70588" stroke-linecap="round" stroke-linejoin="round"/>
</svg>
